<!-- Generated by IcoMoon.io -->
<svg version="1.1" xmlns="http://www.w3.org/2000/svg" width="1024" height="1024" viewBox="0 0 1024 1024">
<title></title>
<g id="icomoon-ignore">
</g>
<path fill="#000" d="M894.51 860.433c-15.564-11.673-31.13-20.382-47.447-28.387 3.079-7.128 4.85-14.927 4.85-22.728 0-15.334-5.111-30.669-17.038-40.892-18.877-16.359-34.966-28.992-51.698-38.602 2.57-7.11 3.991-14.686 3.991-22.736 0-15.334-5.111-30.669-13.631-40.892-20.446-23.854-40.892-39.189-64.746-51.115-1.703 0-1.703 0-1.703 0-26.434-13.995-61.408-23.722-103.575-30.497l-2.063-20.618c-3.408-30.669-28.966-54.523-59.635-54.523h-11.926v-237.944c66.998-8.456 119.267-65.998 119.267-135.195 0.002-74.967-61.336-136.305-136.305-136.305s-136.307 61.338-136.307 136.307c0 69.197 52.269 126.739 119.267 135.195v237.944h-13.631c-30.669 0-56.226 23.854-59.635 54.523l-2.118 21.179c-40.624 6.749-74.402 16.325-100.111 29.936-1.703 0-1.703 0-1.703 0-23.854 11.926-44.3 28.966-64.746 52.818-8.52 11.926-13.631 25.557-13.631 40.892 0 7.452 1.216 14.494 3.434 20.945-17.768 9.402-34.604 21.778-54.549 40.393-10.223 10.223-17.038 25.557-17.038 40.892 0 6.643 0.962 13.282 3.019 19.509-15.65 7.577-30.637 16.964-45.616 28.197-15.334 11.926-25.557 30.669-25.557 49.412s8.52 37.484 25.557 49.412c57.935 42.595 126.088 64.744 201.057 64.744 1.703 0 1.703 0 1.703 1.703h359.507c76.672 0 144.825-22.149 202.756-64.746 15.334-11.926 25.557-30.669 25.557-49.412s-8.52-37.482-25.557-49.41zM410.622 136.307c0-56.226 46.003-102.23 102.23-102.23s102.23 46.003 102.23 102.23c0 56.226-46.003 102.23-102.23 102.23s-102.23-46.003-102.23-102.23zM483.888 545.226v0h59.635c13.631 0 23.854 10.223 25.557 23.854l8.484 84.833c-0.178 7.885-1.943 14.266-6.779 19.102-5.111 5.111-11.926 8.52-18.743 8.52h-76.672c-6.815 0-13.631-3.408-18.743-8.52-4.79-6.387-6.567-12.775-6.773-19.16l8.478-84.773c1.701-13.633 11.924-23.856 25.555-23.856zM279.428 690.050c17.038-20.446 34.077-32.372 52.818-42.595 1.703 0 1.703 0 3.408-1.703 19.991-9.995 48.142-19.979 81.237-25.196l-2.861 28.602c-1.703 17.038 3.408 34.077 15.334 46.003 11.926 13.631 27.261 20.446 44.3 20.446h78.375c17.038 0 32.372-8.52 44.3-20.446s17.038-28.966 15.334-46.003l-3.408-28.966c34.077 5.111 63.041 15.334 83.487 25.557 0 1.703 0 1.703 1.703 1.703 18.743 10.223 34.077 22.149 51.115 42.595 3.408 5.111 5.111 11.926 5.111 18.743 0 6.815-1.703 13.629-5.111 18.741 0 0 0 0 0 0-12.459 15.229-26.324 27.644-41.139 37.020-4.558 2.885-9.207 5.481-13.931 7.785-4.724 2.302-9.526 4.311-14.39 6.018-2.432 0.853-4.88 1.631-7.342 2.334s-4.938 1.328-7.428 1.877c-8.711 1.921-17.575 2.899-26.52 2.899h-243.646c-40.892 0-80.081-20.446-110.749-57.929-3.408-5.111-5.111-11.926-5.111-18.743 0.002-6.817 1.705-13.631 5.113-18.743zM214.682 792.28c16.742-15.067 31.837-26.825 46.906-35.313 36.216 40.113 80.917 60.871 128.59 60.871h245.351c1.521 0 3.041-0.024 4.56-0.068 0.415-0.012 0.833-0.038 1.248-0.054 1.106-0.042 2.21-0.084 3.314-0.15 0.479-0.028 0.956-0.072 1.436-0.104 1.044-0.072 2.087-0.144 3.129-0.236 0.489-0.044 0.978-0.1 1.466-0.148 1.030-0.102 2.061-0.204 3.089-0.325 0.497-0.060 0.994-0.13 1.49-0.194 1.016-0.13 2.031-0.262 3.045-0.413 0.521-0.078 1.042-0.166 1.563-0.25 0.98-0.156 1.961-0.313 2.939-0.487 0.563-0.1 1.124-0.212 1.687-0.317 0.926-0.176 1.851-0.353 2.773-0.545 0.625-0.13 1.25-0.27 1.873-0.407 0.845-0.186 1.689-0.373 2.53-0.575 0.713-0.17 1.422-0.347 2.132-0.527 0.731-0.184 1.462-0.369 2.19-0.565 0.829-0.222 1.657-0.453 2.486-0.687 0.581-0.166 1.162-0.331 1.741-0.503 0.982-0.29 1.961-0.591 2.941-0.9 0.383-0.122 0.767-0.244 1.15-0.367 1.186-0.383 2.368-0.783 3.55-1.194 0.116-0.040 0.232-0.082 0.347-0.122 27.66-9.712 54.108-27.103 77.399-51.866 15.139 8.454 30.298 18.629 47.118 35.449 3.408 5.111 6.815 10.223 6.815 17.038s-1.703 13.631-6.815 17.038c-39.189 37.484-92.007 57.929-144.825 57.929h-308.394c-52.818 0-103.933-20.446-144.825-57.929-3.408-5.111-6.815-10.223-6.815-17.038 0-6.817 1.703-13.631 6.815-17.040zM875.767 930.29c-52.818 39.189-114.156 57.929-182.31 57.929h-361.21c-68.152 0-129.49-18.743-182.31-57.929-6.815-5.111-11.926-13.631-11.926-22.149s5.111-17.038 11.926-22.149c15.334-10.223 30.669-20.446 46.003-27.261 4.878 4.155 9.876 8.104 14.975 11.87 40.854 31.142 89.806 48.236 141.251 49.4 1.877 0.044 3.756 0.066 5.639 0.066h310.097c59.635 0 115.861-20.446 161.864-61.338 17.038 6.815 30.669 15.334 46.003 27.261 6.815 5.111 11.926 13.631 11.926 22.149s-3.408 17.040-11.928 22.151z"></path>
<path fill="#000" d="M529.891 153.345v34.077c0 10.223 6.815 17.038 17.038 17.038s17.038-6.815 17.038-17.038v-102.23c0-10.223-6.815-17.038-17.038-17.038s-17.038 6.815-17.038 17.038v34.077h-34.077v-34.077c0-10.223-6.815-17.038-17.038-17.038s-17.038 6.815-17.038 17.038v102.23c0 10.223 6.815 17.038 17.038 17.038s17.038-6.815 17.038-17.038v-34.077h34.077z"></path>
</svg>
