<!-- Generated by IcoMoon.io -->
<svg version="1.1" xmlns="http://www.w3.org/2000/svg" width="1024" height="1024" viewBox="0 0 1024 1024">
<title></title>
<g id="icomoon-ignore">
</g>
<path fill="#000" d="M512 0c-281.6 0-512 230.4-512 512s230.4 512 512 512 512-230.4 512-512-230.4-512-512-512zM512 989.866c-262.826 0-477.866-215.040-477.866-477.866s215.040-477.866 477.866-477.866 477.866 215.040 477.866 477.866-215.040 477.866-477.866 477.866z"></path>
<path fill="#000" d="M921.6 512c0-33.258-4.046-65.61-11.62-96.62-0.070-0.786-0.17-1.576-0.328-2.366-8.534-34.134-22.186-68.266-39.254-98.986-0.442-0.884-0.972-1.708-1.576-2.468-34.030-60.17-82.828-110.996-141.392-147.478-1.102-1.346-2.374-2.578-3.808-3.654-29.008-18.774-63.142-32.428-97.276-42.668-1.664-0.332-3.326-0.464-4.952-0.408-34.858-9.726-71.544-14.952-109.394-14.952-33.258 0-65.61 4.046-96.62 11.62-0.786 0.070-1.576 0.17-2.366 0.328-34.134 8.532-68.268 22.186-98.988 39.252-0.884 0.442-1.706 0.972-2.468 1.574-61.626 34.852-113.466 85.188-150.116 145.648-0.352 0.406-0.692 0.824-1.016 1.258-18.772 29.014-32.426 63.146-42.666 97.28-0.216 1.076-0.348 2.15-0.4 3.216-9.732 34.868-14.96 71.562-14.96 109.424 0 33.258 4.046 65.61 11.62 96.62 0.070 0.786 0.17 1.576 0.328 2.366 8.534 34.134 22.186 68.266 39.254 98.986 0.442 0.884 0.972 1.706 1.574 2.468 33.42 59.092 81.078 109.178 138.246 145.51 1.356 2.132 3.136 4.040 5.246 5.622 29.014 18.774 63.146 32.426 97.28 42.666 2.136 0.428 4.274 0.534 6.33 0.318 34.956 9.786 71.754 15.042 109.724 15.042 146.388 0 275.456-77.844 347.92-194.166 1.346-1.102 2.578-2.374 3.654-3.808 18.774-29.014 32.426-63.146 42.666-97.28 0.332-1.664 0.464-3.326 0.408-4.952 9.724-34.856 14.95-71.542 14.95-109.392zM840.048 694.030l-92.528-40.376c-27.306-11.946-58.026-6.826-76.8 13.654-5.12 3.414-8.534 6.826-11.946 10.24-20.48 17.066-27.306 47.786-17.066 75.094l37.546 93.866c-20.48 10.24-40.96 18.774-63.146 25.6l-37.548-93.868c-10.24-27.306-35.84-44.374-66.56-44.374-3.414 0-8.534 0-11.946 1.706-29.014-1.706-54.614 15.36-66.56 40.96l-40.636 91.43c-21.926-7.394-42.954-16.78-62.886-27.916l40.376-92.528c11.946-27.306 6.826-58.026-13.654-76.8-3.414-3.414-6.826-6.826-10.24-10.24-17.066-20.48-47.786-27.306-75.094-17.066l-93.866 37.548c-10.24-20.48-18.774-40.96-25.6-63.146l93.866-37.546c27.306-10.24 44.374-35.84 44.374-66.56 0-3.414 0-8.534 0-11.946 1.706-29.014-15.36-54.614-40.96-66.56l-92.16-40.96c6.826-22.186 17.066-42.666 27.306-63.146l93.866 40.96c27.306 11.946 58.026 6.826 76.8-13.654 5.12-3.414 8.534-6.826 11.946-10.24 20.48-17.066 27.306-47.786 17.066-75.094l-37.546-95.574c20.48-10.24 40.96-18.774 63.146-25.6l37.546 93.866c10.24 27.306 35.84 44.374 66.56 44.374 3.414-1.706 8.534 0 11.946 0 27.306 1.706 54.614-15.36 66.56-40.96l40.96-92.16c4.426 1.362 8.768 2.89 13.072 4.496 17.224 6.648 33.844 14.532 49.754 23.546l-40.638 93.13c-11.946 27.306-6.826 58.026 13.654 76.8 3.414 3.414 6.826 6.826 10.24 10.24 17.066 20.48 47.786 27.306 75.094 17.066l93.586-37.434c10.122 20.194 18.486 41.406 24.864 63.442l-92.85 37.14c-27.306 10.24-44.374 35.84-44.374 66.56 0 3.414 0 8.534 0 11.946-1.706 29.014 15.36 54.614 40.96 66.56l91.43 40.636c-7.392 21.926-16.778 42.954-27.914 62.888zM136.534 512c0-28.894 3.312-57.052 9.568-84.114l89.418 39.742c11.946 5.12 20.48 18.774 20.48 32.426 0 3.414 0 8.534 0 13.654 0 15.36-8.534 29.014-22.186 34.134l-90.438 35.328c-4.472-23.064-6.842-46.852-6.842-71.17zM788.48 558.080c-11.946-6.826-20.48-20.48-20.48-34.134 0-5.12 0-8.534 0-13.654 0-15.36 8.534-29.014 22.186-34.134l90.438-35.328c4.472 23.062 6.842 46.85 6.842 71.168 0 29.444-3.448 58.122-9.936 85.658l-89.050-39.576zM830.976 314.6l-90.284 35.266c-13.654 5.12-29.014 1.706-37.546-8.534-3.414-3.414-8.534-8.534-11.946-11.946-10.24-10.24-11.946-25.6-6.826-39.254l38.004-88.676c43.596 29.69 80.68 68.302 108.598 113.144zM597.658 146.47l-39.578 89.050c-6.826 11.946-20.48 22.186-34.134 20.48-3.414 0-8.534 0-13.654 0-15.36 0-29.014-8.534-34.134-22.186l-35.328-90.438c23.062-4.472 46.85-6.842 71.168-6.842 29.446 0 58.124 3.446 85.66 9.936zM314.418 193.136l35.448 93.584c5.12 13.654 1.706 29.014-8.534 37.546-3.414 3.414-8.534 8.534-11.946 11.946-10.24 10.24-25.6 11.946-39.254 6.826l-89.722-39.876c29.788-44.204 68.716-81.79 114.008-110.026zM193.024 709.4l90.284-35.266c13.654-5.12 29.014-1.706 37.546 8.534 3.414 3.414 8.534 8.534 11.946 11.946 10.24 10.24 11.946 25.6 6.826 39.254l-39.080 87.928c-43.128-29.59-79.834-67.924-107.522-112.396zM424.804 877.152l39.41-88.672c6.826-11.946 20.48-20.48 34.134-20.48 3.414 0 8.534 0 13.654 0 17.066 0 29.014 8.534 35.84 22.186l35.328 90.438c-23.062 4.472-46.85 6.842-71.168 6.842-29.996 0-59.19-3.586-87.198-10.314zM708.028 831.836l-35.602-91.142c-5.12-13.654-1.706-29.014 8.534-37.546 5.12-3.414 10.24-8.534 13.654-11.946 10.24-10.24 25.6-11.946 39.254-6.826l88.676 38.004c-29.992 44.040-69.086 81.44-114.516 109.456z"></path>
<path fill="#000" d="M512 563.2c-37.546 0-68.266 30.72-68.266 68.266s30.72 68.266 68.266 68.266c37.546 0 68.266-30.72 68.266-68.266s-30.72-68.266-68.266-68.266zM512 665.6c-18.774 0-34.134-15.36-34.134-34.134s15.36-34.134 34.134-34.134 34.134 15.36 34.134 34.134-15.36 34.134-34.134 34.134z"></path>
<path fill="#000" d="M631.466 443.734c-37.546 0-68.266 30.72-68.266 68.266s30.72 68.266 68.266 68.266c37.546 0 68.266-30.72 68.266-68.266 0.002-37.546-30.718-68.266-68.266-68.266zM631.466 546.134c-18.774 0-34.134-15.36-34.134-34.134s15.36-34.134 34.134-34.134 34.134 15.36 34.134 34.134-15.36 34.134-34.134 34.134z"></path>
<path fill="#000" d="M512 460.8c37.546 0 68.266-30.72 68.266-68.266s-30.72-68.266-68.266-68.266c-37.546 0-68.266 30.72-68.266 68.266s30.72 68.266 68.266 68.266zM512 358.4c18.774 0 34.134 15.36 34.134 34.134s-15.36 34.134-34.134 34.134-34.134-15.36-34.134-34.134 15.36-34.134 34.134-34.134z"></path>
<path fill="#000" d="M392.534 443.734c-37.546 0-68.266 30.72-68.266 68.266s30.72 68.266 68.266 68.266c37.546 0 68.266-30.72 68.266-68.266s-30.72-68.266-68.266-68.266zM392.534 546.134c-18.774 0-34.134-15.36-34.134-34.134s15.36-34.134 34.134-34.134 34.134 15.36 34.134 34.134-15.362 34.134-34.134 34.134z"></path>
</svg>
