<!-- Generated by IcoMoon.io -->
<svg version="1.1" xmlns="http://www.w3.org/2000/svg" width="1024" height="1024" viewBox="0 0 1024 1024">
<title></title>
<g id="icomoon-ignore">
</g>
<path fill="#000" d="M689.939 170.24c-80.415-23.954-280.595-23.954-352.455 0-8.555 1.71-11.976 8.555-11.976 17.109l17.109 188.205c0 5.133 3.423 8.555 6.843 11.976s8.555 5.133 13.688 3.423c87.258-22.242 210.446-22.242 299.415 0 0 0 1.71 0 3.423 0 3.423 0 6.843-1.71 11.976-3.423 3.423-1.71 6.843-6.843 6.843-11.976l17.109-188.205c1.712-6.843-3.421-15.398-11.974-17.109zM650.586 353.309c-42.773-8.555-90.681-13.688-138.586-13.688s-97.524 5.133-140.297 13.688l-13.688-153.985c71.86-17.109 229.267-17.109 306.26 0l-13.688 153.985z"></path>
<path fill="#000" d="M648.876 733.139h-273.752c-29.087 0-51.328 22.242-51.328 51.328v119.765c0 8.555 5.133 15.398 13.688 17.109 58.171 11.976 116.345 17.109 174.516 17.109s116.345-5.133 174.516-17.109c8.555-1.71 13.688-8.555 13.688-17.109v-119.765c0-29.085-22.244-51.328-51.328-51.328zM665.985 890.546c-102.657 18.821-205.313 18.821-307.97 0v-106.079c0-10.266 6.843-17.109 17.109-17.109h273.75c10.266 0 17.109 6.843 17.109 17.109v106.079z"></path>
<path fill="#000" d="M931.182 592.842c1.71 1.71 5.133 3.423 8.555 3.423s5.133 0 8.555-3.423 8.555-8.555 8.555-15.398v-85.548c0-5.133-3.423-10.266-8.555-13.688l-179.649-114.322v-179.96c0-46.195-5.133-85.548-17.109-135.164-1.71-6.843-6.843-11.976-13.688-11.976l-107.791-23.954c-78.703-17.109-160.828-17.109-237.821 0l-107.789 23.954c-5.133 1.71-10.266 5.133-11.976 11.976-11.976 49.618-17.109 88.968-17.109 135.164v164.561l-179.649 114.322c-5.133 1.71-8.555 8.555-8.555 13.688v85.548c0 6.843 3.423 11.976 8.555 15.398 3.423 1.71 5.133 1.71 8.555 1.71s6.841-1.71 8.551-1.71l162.54-103.435v148.231l-179.649 114.322c-5.133 1.71-8.555 8.555-8.555 13.688v85.548c0 6.843 3.423 11.976 8.555 15.398 3.423 1.71 5.133 1.71 8.555 1.71s6.843-1.71 8.555-1.71l162.54-103.435v224.91c0 29.087 22.242 51.328 51.328 51.328h410.627c29.087 0 51.328-22.242 51.328-51.328v-226.623l162.54 103.435c1.71 1.71 5.133 3.423 8.555 3.423s5.133 0 8.555-3.423 8.555-8.555 8.555-15.398v-85.548c0-5.133-3.423-10.266-8.555-13.688l-179.649-114.322v-131.12l162.536 103.435zM922.627 503.874v44.485l-153.985-97.524v-44.485l153.985 97.524zM101.373 529.538v-44.485l153.985-97.524v44.485l-153.985 97.524zM101.373 803.288v-44.485l153.985-97.524v44.485l-153.985 97.524zM734.422 972.672c0 10.266-6.843 17.109-17.109 17.109h-410.627c-10.266 0-17.109-6.843-17.109-17.109v-788.746c0-41.063 3.423-75.282 13.688-116.345l97.524-22.242c73.57-17.109 150.562-17.109 222.422 0l97.524 22.242c10.266 41.063 13.688 76.992 13.688 116.345v788.746zM922.627 760.515v44.485l-153.985-97.524v-44.485l153.985 97.524z"></path>
<path fill="#000" d="M689.939 443.99c-5.133-3.423-11.976-1.71-17.109 1.71l-68.437 51.328c-5.133 3.423-6.843 8.555-6.843 13.688v153.985c0 10.266 6.843 17.109 17.109 17.109h68.437c10.266 0 17.109-6.843 17.109-17.109v-205.313c0-6.843-5.133-11.976-10.266-15.398zM665.985 647.593h-34.22v-128.321l34.22-25.664v153.985z"></path>
<path fill="#000" d="M340.906 681.811h68.437c10.266 0 17.109-6.843 17.109-17.109v-153.985c0-5.133-1.71-10.266-6.843-13.688l-68.437-51.328c-5.133-3.423-11.976-5.133-17.109-1.71-6.843 3.423-10.266 8.555-10.266 15.398v205.313c-0.002 10.266 6.843 17.109 17.109 17.109zM358.015 493.608l34.22 25.664v128.321h-34.22v-153.985z"></path>
</svg>
