<!-- Generated by IcoMoon.io -->
<svg version="1.1" xmlns="http://www.w3.org/2000/svg" width="1024" height="1024" viewBox="0 0 1024 1024">
<title></title>
<g id="icomoon-ignore">
</g>
<path fill="#000" d="M1006.934 375.466h-68.266c-6.826 0-13.654 5.12-15.36 11.946l-47.786 141.654h-46.080l-46.080-76.8c-3.414-5.12-8.534-8.534-15.36-8.534h-68.266v-51.2c0-10.24-6.826-17.066-17.066-17.066h-119.47v-68.266h51.2c10.24 0 17.066-6.826 17.066-17.066v-102.4c0-10.24-6.826-17.066-17.066-17.066h-307.2c-10.24 0-17.066 6.826-17.066 17.066v102.4c0 10.24 6.826 17.066 17.066 17.066h51.2v68.266h-136.534c-5.12 0-8.534 1.706-11.946 5.12s-5.12 6.826-5.12 11.946v51.2h-119.466c-10.24 0-17.066 6.826-17.066 17.066v102.4h-34.134v-51.198c0-10.24-6.826-17.066-17.066-17.066s-17.068 6.826-17.068 17.066v136.534c0 10.24 6.826 17.066 17.066 17.066s17.066-6.826 17.066-17.066v-51.2h34.134v136.534c0 10.24 6.826 17.066 17.066 17.066h128l63.146 95.574c3.414 3.414 8.534 6.826 13.654 6.826h477.868c6.826 0 11.946-3.414 15.36-10.24l46.080-92.16h47.786l46.080 92.16c3.414 6.826 8.534 10.24 15.36 10.24h68.266c10.24 0 17.066-6.826 17.066-17.066v-443.734c0.002-10.24-6.824-17.068-17.064-17.068zM324.266 204.8h273.066v68.266h-273.066v-68.266zM392.534 307.2h136.534v68.266h-136.534v-68.266zM102.4 716.8v-238.934h102.4v238.934h-102.4zM756.054 819.2h-457.388l-59.734-90.408v-319.192h426.668v51.2c0 10.24 6.826 17.066 17.066 17.066h75.094l44.374 73.956v175.218l-46.080 92.16zM836.266 716.8v-153.6h34.134v153.6h-34.134zM989.866 819.2h-40.96l-44.374-85.578v-187.428l46.080-136.594h39.254v409.6z"></path>
</svg>
