<!-- Generated by IcoMoon.io -->
<svg version="1.1" xmlns="http://www.w3.org/2000/svg" width="1024" height="1024" viewBox="0 0 1024 1024">
<title></title>
<g id="icomoon-ignore">
</g>
<path fill="#000" d="M136.534 426.666h750.934c5.12 0 10.24-1.706 13.654-6.826s5.12-10.24 3.414-15.36c-49.496-177.494-209.922-302.080-392.536-302.080s-343.040 124.586-392.534 302.080c0 5.12 0 11.946 3.414 15.36 3.414 5.12 8.534 6.826 13.654 6.826zM512 136.534c158.72 0 302.080 104.106 351.574 256h-704.854c51.2-151.894 194.56-256 353.28-256z"></path>
<path fill="#000" d="M904.534 498.346c-6.826-1.706-15.36-1.706-22.186-1.706-73.386 0-119.466 37.546-119.466 98.986 0 54.614 37.546 102.4 92.16 116.054 0 0 1.706 0 3.414 0 6.826 0 11.946-3.414 11.946-6.826 30.72-59.734 47.786-102.4 47.786-170.666 0-5.12 0-8.534 0-13.654v-6.826c-0.002-6.828-5.122-13.654-13.654-15.362zM889.174 530.774c0 56.32-13.654 93.866-37.546 141.654-32.428-11.948-52.908-42.668-52.908-78.508 0-58.026 59.734-64.854 85.334-64.854 0 0 1.706 0 5.12-1.706 0 1.706 0 1.706 0 3.414z"></path>
<path fill="#000" d="M513.706 721.92c-107.52 0-203.094 37.546-244.054 97.28-5.12 8.534-3.414 18.774 3.414 23.894 69.974 51.2 151.894 78.506 238.934 78.506 85.334 0 168.96-27.306 240.64-78.506 6.826-5.12 8.534-17.066 3.414-23.894-40.96-59.734-136.534-97.28-242.348-97.28zM512 887.466c-73.386 0-143.36-20.48-204.8-61.44 40.96-42.666 119.466-69.974 204.8-69.974s165.546 27.306 204.8 69.974c-61.44 40.96-131.414 61.44-204.8 61.44z"></path>
<path fill="#000" d="M512 0c-281.6 0-512 230.4-512 512s230.4 512 512 512 512-230.4 512-512-230.4-512-512-512zM512 989.866c-262.826 0-477.866-215.040-477.866-477.866s215.040-477.866 477.866-477.866 477.866 215.040 477.866 477.866-215.040 477.866-477.866 477.866z"></path>
<path fill="#000" d="M138.24 474.454c-6.826 0-15.36 0-22.186 1.706s-13.654 6.826-13.654 15.36v6.826c0 5.12 0 8.534 0 13.654 0 66.56 17.066 131.414 47.786 191.146 3.414 5.12 8.534 8.534 15.36 8.534 1.706 0 3.414 0 0-1.706 54.614-13.654 92.16-61.44 92.16-116.054 0-64.854-52.906-119.466-119.466-119.466zM174.080 674.134c-25.6-51.2-37.546-105.814-37.546-162.134 0-1.706 0-1.706 0-3.414 49.494-1.706 90.454 37.546 90.454 87.040-0.002 34.134-20.482 64.854-52.908 78.508z"></path>
<path fill="#000" d="M341.334 563.2c0 49.494 73.386 85.334 170.666 85.334s170.666-35.84 170.666-85.334c0-49.494-73.386-85.334-170.666-85.334s-170.666 35.84-170.666 85.334zM648.534 563.2c0 20.48-52.906 51.2-136.534 51.2-83.626 0-136.534-30.72-136.534-51.2s52.906-51.2 136.534-51.2c83.626 0 136.534 30.72 136.534 51.2z"></path>
</svg>
