<!-- Generated by IcoMoon.io -->
<svg version="1.1" xmlns="http://www.w3.org/2000/svg" width="1024" height="1024" viewBox="0 0 1024 1024">
<title></title>
<g id="icomoon-ignore">
</g>
<path fill="#000" d="M312.32 442.026c-8.534-10.24-22.186-15.36-35.84-15.36h-105.814c-29.014 0-51.2 22.186-51.2 51.2v358.4c0 29.014 22.186 51.2 51.2 51.2h170.666c29.014 0 51.2-22.186 51.2-51.2v-293.546c0-13.654-5.12-25.6-15.36-35.84l-64.852-64.854zM358.4 836.266c0 10.24-6.826 17.066-17.066 17.066h-170.668c-10.24 0-17.066-6.826-17.066-17.066v-358.4c0-10.24 6.826-17.066 17.066-17.066h105.814c5.12 0 8.534 1.706 11.946 5.12l64.854 64.854c3.414 3.414 5.12 6.826 5.12 11.946v293.546z"></path>
<path fill="#000" d="M660.48 578.56c8.534 1.706 15.36 1.706 22.186 1.706 23.894 0 46.080-8.534 63.146-23.894 23.894-20.48 37.546-49.494 37.546-80.214 0-15.36-5.12-30.72-13.654-44.374l-8.534-13.654c-11.946-18.774-23.894-37.546-34.134-58.026l-30.72-61.44c-3.414-6.826-8.534-10.24-15.36-10.24s-11.946 5.12-15.36 10.24l-23.894 49.494c-11.946 25.6-25.6 52.906-44.374 76.8-10.24 13.654-15.36 29.014-17.066 46.080-3.408 51.202 30.724 97.282 80.218 107.522zM616.106 474.454c0-10.24 3.414-18.774 10.24-27.306 18.774-27.306 34.134-56.32 47.786-83.626l8.534-18.774 15.36 30.72c10.24 22.186 23.894 40.96 35.84 61.44l10.24 15.36c6.826 8.534 8.534 17.066 8.534 27.306 0 20.48-10.24 39.254-25.6 52.906-17.066 13.654-37.546 18.774-58.026 13.654-32.428-6.828-54.614-37.548-52.908-71.68z"></path>
<path fill="#000" d="M273.066 563.2h-51.2c-10.24 0-17.066 6.826-17.066 17.066s6.826 17.066 17.066 17.066h51.2c10.24 0 17.066-6.826 17.066-17.066s-6.826-17.066-17.066-17.066z"></path>
<path fill="#000" d="M273.066 648.534h-51.2c-10.24 0-17.066 6.826-17.066 17.066s6.826 17.066 17.066 17.066h51.2c10.24 0 17.066-6.826 17.066-17.066 0.002-10.24-6.826-17.066-17.066-17.066z"></path>
<path fill="#000" d="M273.066 733.866h-51.2c-10.24 0-17.066 6.826-17.066 17.066s6.826 17.066 17.066 17.066h51.2c10.24 0 17.066-6.826 17.066-17.066s-6.826-17.066-17.066-17.066z"></path>
<path fill="#000" d="M998.4 259.414l-131.414-131.414c-15.36-17.066-37.546-25.6-59.734-25.6h-209.92v-51.2c0-29.014-22.186-51.2-51.2-51.2h-68.266c-29.014 0-51.2 22.186-51.2 51.2v51.2c-47.786 0-85.334 37.546-85.334 85.334v107.48c-9.272-3.38-19.14-5.080-29.014-5.080h-141.652v-51.2c0-29.014-22.186-51.2-51.2-51.2h-34.132c-29.014 0-51.2 22.186-51.2 51.2v54.614c-20.48 6.826-34.134 25.598-34.134 47.786v631.466c0 29.014 22.186 51.2 51.2 51.2h887.466c47.788 0 85.334-37.546 85.334-85.334v-619.52c0-22.186-10.24-44.372-25.6-59.732zM477.866 413.014v-157.014c0-10.24 6.826-17.066 17.066-17.066h271.36c13.654 0 25.6 5.12 35.84 15.36l69.974 69.974c10.24 8.534 15.36 22.186 15.36 35.84v510.292c0 10.24-6.826 17.066-17.066 17.066h-341.334c-10.24 0-17.066-6.826-17.066-17.066v-395.946c0-13.654-5.12-25.6-15.36-35.84l-13.654-13.654c-3.412-3.414-5.12-6.826-5.12-11.946zM34.134 972.8v-631.466c0-10.24 6.826-17.066 17.066-17.066s17.066-6.826 17.066-17.066v-68.266c0-10.24 6.826-17.066 17.066-17.066h34.134c10.24 0 17.066 6.826 17.066 17.066v68.264c0 10.24 6.826 17.066 17.066 17.066h158.72c13.654 0 25.6 5.12 35.84 15.36l114.346 114.346c10.24 8.534 15.36 22.186 15.36 35.84v482.988c0 10.24-6.826 17.066-17.066 17.066h-409.598c-10.24 0-17.066-6.826-17.066-17.066zM989.866 938.666c0 29.014-22.186 51.2-51.2 51.2h-429.418c1.78-5.304 2.752-11.034 2.752-17.066v-53.952c5.304 1.78 11.034 2.752 17.066 2.752h341.334c29.014 0 51.2-22.186 51.2-51.2v-510.294c0-22.186-10.24-44.374-25.6-59.734l-69.974-69.972c-15.36-17.066-37.546-25.6-59.734-25.6h-271.36c-29.014 0-51.2 22.186-51.2 51.2v129.706l-68.266-68.266v-129.706c0-29.014 22.186-51.2 51.2-51.2h17.066c10.24 0 17.066-6.826 17.066-17.066v-68.268c0-10.24 6.826-17.066 17.066-17.066h68.266c10.24 0 17.066 6.826 17.066 17.066v68.266c0 10.24 6.826 17.066 17.066 17.066h226.986c13.654 0 27.306 5.12 35.84 15.36l131.414 131.414c10.24 8.534 15.36 22.186 15.36 35.84v619.52z"></path>
<path fill="#000" d="M768 648.534h-170.666c-10.24 0-17.066 6.826-17.066 17.066s6.826 17.066 17.066 17.066h170.666c10.24 0 17.066-6.826 17.066-17.066s-6.826-17.066-17.066-17.066z"></path>
<path fill="#000" d="M563.2 768h238.934c10.24 0 17.066-6.826 17.066-17.066s-6.826-17.066-17.066-17.066h-238.934c-10.24 0-17.066 6.826-17.066 17.066s6.826 17.066 17.066 17.066z"></path>
</svg>
